<mxfile host="app.diagrams.net" agent="Mozilla/5.0 (Macintosh; Intel Mac OS X 10.15; rv:131.0) Gecko/20100101 Firefox/131.0" version="24.7.17">
  <diagram id="C5RBs43oDa-KdzZeNtuy" name="Page-1">
    <mxGraphModel dx="918" dy="591" grid="1" gridSize="10" guides="1" tooltips="1" connect="1" arrows="1" fold="1" page="1" pageScale="1" pageWidth="827" pageHeight="1169" math="0" shadow="0">
      <root>
        <mxCell id="WIyWlLk6GJQsqaUBKTNV-0" />
        <mxCell id="WIyWlLk6GJQsqaUBKTNV-1" parent="WIyWlLk6GJQsqaUBKTNV-0" />
        <mxCell id="x0Ubh_C8UORa3lfviyBT-0" value="&lt;div&gt;Saturn Database&lt;/div&gt;" style="shape=cylinder3;whiteSpace=wrap;html=1;boundedLbl=1;backgroundOutline=1;size=15;" vertex="1" parent="WIyWlLk6GJQsqaUBKTNV-1">
          <mxGeometry x="50" y="80" width="60" height="80" as="geometry" />
        </mxCell>
        <mxCell id="x0Ubh_C8UORa3lfviyBT-12" style="edgeStyle=orthogonalEdgeStyle;rounded=0;orthogonalLoop=1;jettySize=auto;html=1;exitX=0.25;exitY=1;exitDx=0;exitDy=0;entryX=0.5;entryY=0;entryDx=0;entryDy=0;" edge="1" parent="WIyWlLk6GJQsqaUBKTNV-1" source="x0Ubh_C8UORa3lfviyBT-1" target="x0Ubh_C8UORa3lfviyBT-4">
          <mxGeometry relative="1" as="geometry" />
        </mxCell>
        <mxCell id="x0Ubh_C8UORa3lfviyBT-1" value="&lt;div&gt;Engine&lt;/div&gt;" style="whiteSpace=wrap;html=1;aspect=fixed;" vertex="1" parent="WIyWlLk6GJQsqaUBKTNV-1">
          <mxGeometry x="40" y="200" width="240" height="240" as="geometry" />
        </mxCell>
        <mxCell id="x0Ubh_C8UORa3lfviyBT-3" value="&lt;div&gt;Texture System&lt;/div&gt;" style="rounded=0;whiteSpace=wrap;html=1;" vertex="1" parent="WIyWlLk6GJQsqaUBKTNV-1">
          <mxGeometry x="320" y="200" width="120" height="60" as="geometry" />
        </mxCell>
        <mxCell id="x0Ubh_C8UORa3lfviyBT-13" style="edgeStyle=orthogonalEdgeStyle;rounded=0;orthogonalLoop=1;jettySize=auto;html=1;exitX=0.5;exitY=1;exitDx=0;exitDy=0;entryX=0.25;entryY=0;entryDx=0;entryDy=0;" edge="1" parent="WIyWlLk6GJQsqaUBKTNV-1" source="x0Ubh_C8UORa3lfviyBT-4" target="x0Ubh_C8UORa3lfviyBT-9">
          <mxGeometry relative="1" as="geometry" />
        </mxCell>
        <mxCell id="x0Ubh_C8UORa3lfviyBT-4" value="Renderer" style="rounded=0;whiteSpace=wrap;html=1;" vertex="1" parent="WIyWlLk6GJQsqaUBKTNV-1">
          <mxGeometry x="40" y="468" width="120" height="60" as="geometry" />
        </mxCell>
        <mxCell id="x0Ubh_C8UORa3lfviyBT-5" value="" style="endArrow=classic;html=1;rounded=0;" edge="1" parent="WIyWlLk6GJQsqaUBKTNV-1">
          <mxGeometry width="50" height="50" relative="1" as="geometry">
            <mxPoint x="79.5" y="160" as="sourcePoint" />
            <mxPoint x="79.5" y="190" as="targetPoint" />
          </mxGeometry>
        </mxCell>
        <mxCell id="x0Ubh_C8UORa3lfviyBT-6" value="&lt;div&gt;Saves&lt;/div&gt;" style="shape=cylinder3;whiteSpace=wrap;html=1;boundedLbl=1;backgroundOutline=1;size=15;" vertex="1" parent="WIyWlLk6GJQsqaUBKTNV-1">
          <mxGeometry x="120" y="80" width="60" height="80" as="geometry" />
        </mxCell>
        <mxCell id="x0Ubh_C8UORa3lfviyBT-7" value="" style="endArrow=classic;startArrow=classic;html=1;rounded=0;entryX=0.5;entryY=1;entryDx=0;entryDy=0;entryPerimeter=0;" edge="1" parent="WIyWlLk6GJQsqaUBKTNV-1" target="x0Ubh_C8UORa3lfviyBT-6">
          <mxGeometry width="50" height="50" relative="1" as="geometry">
            <mxPoint x="150" y="190" as="sourcePoint" />
            <mxPoint x="440" y="380" as="targetPoint" />
          </mxGeometry>
        </mxCell>
        <mxCell id="x0Ubh_C8UORa3lfviyBT-9" value="Screen Frame Buffer" style="whiteSpace=wrap;html=1;aspect=fixed;" vertex="1" parent="WIyWlLk6GJQsqaUBKTNV-1">
          <mxGeometry x="40" y="560" width="240" height="240" as="geometry" />
        </mxCell>
        <mxCell id="x0Ubh_C8UORa3lfviyBT-14" value="&lt;div&gt;Player&lt;/div&gt;&lt;div&gt;&lt;br&gt;&lt;/div&gt;" style="shape=umlActor;verticalLabelPosition=bottom;verticalAlign=top;html=1;outlineConnect=0;" vertex="1" parent="WIyWlLk6GJQsqaUBKTNV-1">
          <mxGeometry x="230" y="50" width="30" height="60" as="geometry" />
        </mxCell>
        <mxCell id="x0Ubh_C8UORa3lfviyBT-16" style="edgeStyle=orthogonalEdgeStyle;rounded=0;orthogonalLoop=1;jettySize=auto;html=1;entryX=0.854;entryY=-0.007;entryDx=0;entryDy=0;entryPerimeter=0;" edge="1" parent="WIyWlLk6GJQsqaUBKTNV-1" source="x0Ubh_C8UORa3lfviyBT-14" target="x0Ubh_C8UORa3lfviyBT-1">
          <mxGeometry relative="1" as="geometry" />
        </mxCell>
      </root>
    </mxGraphModel>
  </diagram>
</mxfile>
